<svg width="20" height="20" viewBox="0 0 20 20" fill="none" xmlns="http://www.w3.org/2000/svg">
<path d="M19.7609 18.3469L15.2219 13.8079C16.5688 12.1004 17.2124 9.94273 17.0209 7.77636C16.8294 5.60999 15.8175 3.59865 14.192 2.1538C12.5665 0.708948 10.4504 -0.0602066 8.2765 0.003684C6.10263 0.0675746 4.03533 0.959682 2.4975 2.4975C0.959682 4.03533 0.0675746 6.10263 0.003684 8.2765C-0.0602066 10.4504 0.708948 12.5665 2.1538 14.192C3.59865 15.8175 5.60999 16.8294 7.77636 17.0209C9.94273 17.2124 12.1004 16.5688 13.8079 15.2219L18.3469 19.7609L19.7609 18.3469ZM8.55391 15.0539C7.26833 15.0539 6.01162 14.6727 4.9427 13.9585C3.87378 13.2442 3.04066 12.2291 2.54869 11.0414C2.05672 9.85363 1.928 8.5467 2.1788 7.28582C2.42961 6.02495 3.04867 4.86676 3.95772 3.95772C4.86676 3.04867 6.02495 2.42961 7.28582 2.1788C8.5467 1.928 9.85363 2.05672 11.0414 2.54869C12.2291 3.04066 13.2442 3.87378 13.9585 4.9427C14.6727 6.01162 15.0539 7.26833 15.0539 8.55391C15.0518 10.2772 14.3663 11.9292 13.1478 13.1478C11.9292 14.3663 10.2772 15.0518 8.55391 15.0539Z" fill="#A8B4B4"/>
</svg>
