<svg width="192" height="214" viewBox="0 0 192 214" fill="none" xmlns="http://www.w3.org/2000/svg">
<path d="M76.0262 68.1593L73.4243 70.9709C73.0654 70.6715 72.527 71.1807 72.8859 71.5384C77.0658 75.7026 83.0569 79.0671 85.8641 84.3674C85.9127 84.4504 85.9798 84.5211 86.0603 84.574C86.1407 84.6268 86.2323 84.6603 86.3278 84.672C86.4233 84.6836 86.5202 84.673 86.611 84.6409C86.7018 84.6089 86.7839 84.5564 86.851 84.4874C88.1901 83.0148 89.5684 81.5793 90.8884 80.0911C90.9889 79.9907 91.0525 79.8592 91.0688 79.7181C91.0851 79.577 91.0531 79.4345 90.9781 79.3139C87.5532 73.858 82.4236 69.6849 76.385 67.4415C76.0284 67.3159 75.757 67.8901 76.0262 68.1593Z" fill="#04BEBD"/>
<path d="M52.7612 147.018C53.2659 147.324 53.2165 147.943 53.359 148.543C53.4464 149.552 53.892 150.496 54.6151 151.204C55.9396 152.119 57.9347 151.324 59.1011 150.367C59.4488 150.367 58.9351 151.117 65.7696 139.303C65.8051 139.241 65.8263 139.173 65.8317 139.102C65.8371 139.031 65.8264 138.96 65.8006 138.894C65.7747 138.828 65.7343 138.768 65.6824 138.72C65.6304 138.671 65.5682 138.635 65.5004 138.614C61.9026 137.072 59.2873 134.308 59.1314 130.302C59.2074 128.015 59.6 125.751 60.2978 123.573C62.0466 116.66 64.6903 110.004 68.1618 103.776C68.2739 103.566 68.1909 103.215 67.9229 103.178C66.1405 102.861 64.4447 102.172 62.9456 101.158C61.4464 100.143 60.1775 98.8237 59.2211 97.2866C59.1846 97.2282 59.1339 97.18 59.0736 97.1466C59.0134 97.1132 58.9457 97.0957 58.8768 97.0957C58.8079 97.0957 58.7402 97.1132 58.68 97.1466C58.6197 97.18 58.569 97.2282 58.5325 97.2866C36.5801 126.954 44.0347 116.702 31.9527 130.63C28.7575 134.312 24.8064 139.542 25.4031 144.746C25.7631 147.886 28.5141 148.876 31.3538 148.513C37.3696 147.744 41.4833 142.485 43.1072 142.801C44.5461 143.082 41.7614 146.958 41.3128 147.615C38.2657 152.075 31.4861 159.019 33.0888 162.926C33.8368 164.751 35.9868 164.775 37.5748 164.213C44.5024 161.761 45.7058 153.446 50.2838 148.692C50.7481 148.204 52.0378 146.576 52.7612 147.018Z" fill="#33C1C0"/>
<path d="M92.4452 79.2551C96.1857 82.8636 100.609 85.6896 105.455 87.5677C106.084 87.8043 106.53 86.731 105.932 86.4619C101.06 84.4209 96.6158 81.4785 92.8344 77.7892C91.6983 76.6531 91.4583 76.1148 92.1469 74.5896C92.9835 72.7357 95.1099 70.8538 96.5129 69.3858C99.519 66.248 102.87 63.4594 106.501 61.0731C110.145 58.6731 115.562 55.2121 119.898 57.8432C119.928 57.9329 119.958 58.0529 119.987 58.1426C121.035 60.5348 121.837 62.9651 124.264 64.2425C125.256 64.827 126.398 65.1049 127.548 65.041C128.697 64.9772 129.802 64.5744 130.723 63.8836C131.112 63.5831 130.575 62.8989 130.185 63.1961C129.109 63.8915 127.822 64.1829 126.552 64.0186C125.282 63.8543 124.111 63.245 123.247 62.2989C122.634 61.5849 122.139 60.7773 121.782 59.9068C121.456 59.1879 121.276 57.9598 120.676 57.3946C117.61 54.5089 112.535 56.1867 109.401 57.9329C104.044 61.0393 99.1509 64.885 94.8665 69.3566C93.3659 70.966 91.1263 73.0329 90.2616 75.0976C89.5113 76.8909 91.3102 78.1773 92.4452 79.2551Z" fill="#1A424F"/>
<path d="M22.2884 160.564C27.1165 150.358 24.5314 146.874 12.51 159.547C9.78805 162.418 6.96633 165.353 7.87476 167.681C8.49495 169.269 10.6258 170.118 12.4202 170.133C16.9994 170.172 20.3269 164.71 22.2884 160.564Z" fill="#1A424F"/>
<path d="M4.73483 172.466C3.70693 172.821 2.77242 173.403 2.00093 174.17C1.22944 174.936 0.640864 175.867 0.279065 176.892C0.0903311 177.291 -0.00504194 177.727 0.000205362 178.168C0.00545267 178.608 0.111181 179.042 0.309346 179.436C0.968794 180.364 2.48956 180.246 3.59874 180.034C7.21449 179.344 9.92406 174.748 8.83171 173.067C8.11394 171.958 5.9898 172.102 4.73483 172.466Z" fill="#1A424F"/>
<path d="M28.4488 165.081C23.2495 165.103 18.3552 177.427 20.4042 179.017C22.0035 180.082 26.6667 175.764 28.0899 174.41C30.2533 172.358 32.9618 169.812 32.2171 167.533C31.8972 166.801 31.3699 166.179 30.7002 165.743C30.0305 165.307 29.2479 165.077 28.4488 165.081Z" fill="#1A424F"/>
<path d="M15.5004 183.262C12.921 184.022 12.1213 188.004 13.1083 188.794C14.2825 189.734 19.29 185.897 18.7304 184.129C18.4478 183.236 16.7263 182.9 15.5004 183.262Z" fill="#1A424F"/>
<path d="M184.668 198.124C180.594 197.9 177.971 194.121 172.288 194.535C170.433 194.67 168.668 195.352 166.786 194.804C164.36 194.098 162.389 192.023 159.758 191.873C157.127 191.722 155.931 193.877 153.867 195.043C151.594 196.328 149.987 194.578 147.976 193.697C144.745 192.282 140.901 192.295 138.407 194.684C137.414 195.64 136.683 196.835 136.285 198.155C135.887 199.474 135.835 200.874 136.134 202.22C136.522 203.316 137.195 204.29 138.082 205.041C138.97 205.792 140.042 206.295 141.187 206.496C143.812 206.74 146.453 206.77 149.083 206.586C160.298 206.315 158.286 206.401 175.102 205.629C180.223 205.395 191.301 206.839 191.967 201.383C192.462 197.315 187.151 198.262 184.668 198.124ZM189.573 202.849C186.927 204.713 182.486 204.307 179.435 204.225C171.761 204.012 148.538 205.539 141.192 205.122C138.98 204.997 135.903 200.997 137.783 197.406C138.437 196.146 139.48 195.131 140.756 194.511C142.033 193.892 143.476 193.701 144.87 193.968C147.053 194.304 148.609 195.58 150.552 196.45C153.93 197.96 155.737 194.543 157.819 193.519C161.175 191.865 164.259 196.133 168.166 196.33C169.55 196.255 170.928 196.095 172.292 195.852C177.457 195.484 180.021 198.801 183.596 199.38C185.884 199.75 189.462 198.991 190.415 200.068C191.226 200.988 190.346 202.305 189.573 202.849Z" fill="#1A424F"/>
<path d="M15.1709 40.4989C16.7578 41.0596 18.9694 40.6985 20.6136 40.7377C23.5744 40.8095 54.4058 41.6271 66.8759 41.8144C70.7036 41.8716 76.5355 40.4989 77.103 35.6236C77.2012 34.7263 77.1003 33.8184 76.8075 32.9645C76.5146 32.1107 76.0371 31.3319 75.4088 30.6837C74.7806 30.0356 74.0171 29.5339 73.1728 29.2146C72.3285 28.8953 71.4241 28.7661 70.5242 28.8363C69.5628 29.0011 68.6276 29.2926 67.7428 29.7032C65.649 30.3593 64.7809 29.6146 63.2871 28.1779C60.9348 25.9795 57.9866 24.5233 54.8111 23.9915C51.6357 23.4597 48.3739 23.8759 45.4337 25.188C40.4991 27.3716 39.4437 31.0198 37.0605 31.9171C35.154 32.6371 33.6489 31.4494 31.887 30.9896C29.7561 30.4355 28.4787 31.2296 26.6249 32.1559C24.1183 33.4098 22.4629 31.5167 18.3414 33.2034C16.1668 34.0883 10.4213 38.811 15.1709 40.4989ZM16.1578 36.6106C17.0556 35.7529 18.1336 35.1064 19.3131 34.7184C20.4926 34.3303 21.7438 34.2105 22.9755 34.3676C24.8274 34.5965 26.7025 34.196 28.2993 33.2303C30.8092 31.9967 32.155 33.3582 34.5495 33.8887C38.7619 34.8218 40.6628 30.92 42.9227 29.0146C45.4046 27.0328 48.4622 25.9091 51.6368 25.8121C54.8115 25.715 57.932 26.6498 60.5304 28.4763C62.0859 29.6415 63.2826 31.5828 65.2553 32.0943C67.3189 32.6292 68.6344 30.901 70.578 30.7484C71.3357 30.6841 72.0972 30.8176 72.7878 31.136C73.4784 31.4543 74.0745 31.9466 74.5177 32.5646C74.9609 33.1825 75.236 33.905 75.316 34.6613C75.3961 35.4175 75.2783 36.1816 74.9743 36.8786C73.7766 39.7497 67.8864 39.8674 66.84 39.8697C52.9333 39.8955 28.9329 39.06 19.6244 39.0028C18.6072 38.996 17.0124 39.2865 16.1556 38.6439C15.3402 38.0304 15.5623 37.2711 16.1578 36.6106Z" fill="#1A424F"/>
<path d="M127.044 42.0507C128.311 41.6405 129.419 40.8464 130.214 39.7786C131.254 38.3374 130.991 37.3258 130.752 35.9508C132.337 36.8481 134.101 37.5064 135.865 36.7583C137.839 35.9217 138.292 33.9759 137.66 32.0626C137.155 30.5362 135.567 27.3085 133.653 27.1885C132.987 27.1879 132.341 27.4208 131.829 27.8468C128.153 31.376 124.136 34.5317 119.837 37.2675C119.707 37.3435 119.612 37.4676 119.573 37.6131C119.533 37.7585 119.553 37.9136 119.627 38.0447C121.374 40.5614 123.725 43.1027 127.044 42.0507ZM133.504 34.6645C132.47 34.582 131.447 34.3918 130.453 34.097C130.362 34.0687 130.284 34.0086 130.234 33.9277C130.183 33.8468 130.163 33.7504 130.178 33.6561C130.192 33.5618 130.24 33.4759 130.313 33.414C130.385 33.352 130.478 33.3182 130.573 33.3187C131.634 33.4203 132.684 33.6105 133.713 33.8873C134.222 34.0017 133.981 34.7329 133.504 34.6667V34.6645ZM135.237 31.6745C135.337 31.7052 135.421 31.7733 135.471 31.8645C135.522 31.9558 135.535 32.063 135.508 32.1637C135.481 32.2644 135.416 32.3507 135.326 32.4044C135.237 32.4581 135.13 32.4751 135.029 32.4517C133.909 32.3386 132.811 32.0667 131.769 31.6442C131.703 31.6013 131.652 31.5388 131.624 31.4655C131.595 31.3922 131.591 31.3119 131.611 31.2359C131.631 31.1599 131.674 31.092 131.734 31.0419C131.795 30.9918 131.87 30.962 131.948 30.9568C133.072 31.0447 134.179 31.2869 135.237 31.6768V31.6745ZM124.92 36.3097C126.044 36.3718 127.153 36.6036 128.209 36.9972C128.658 37.1453 128.597 37.8765 128.089 37.835C126.922 37.7736 125.773 37.5315 124.681 37.1172C124.293 36.9097 124.531 36.312 124.921 36.312L124.92 36.3097ZM124.65 38.7916C125.437 38.8773 126.216 39.0171 126.983 39.21C127.552 39.33 127.309 40.1789 126.744 40.0769C125.956 40.0169 125.181 39.8458 124.441 39.5688C124.048 39.3714 124.263 38.8242 124.651 38.7984L124.65 38.7916Z" fill="#04BEBD"/>
<path d="M108.922 198.693C105.013 203.365 100.405 207.281 96.2426 211.671C95.794 212.147 96.4501 212.745 96.9301 212.358C101.599 208.491 105.876 204.174 109.7 199.47C110.147 198.931 109.372 198.155 108.922 198.693Z" fill="#1A424F"/>
<path d="M110.866 182.843C104.278 189.566 97.4357 196.114 91.3077 203.238C91.2298 203.327 91.1887 203.442 91.1926 203.561C91.1966 203.679 91.2454 203.791 91.329 203.875C91.4127 203.959 91.5251 204.007 91.6433 204.011C91.7616 204.015 91.877 203.974 91.9661 203.896C98.934 197.568 105.356 190.605 111.705 183.68C112.218 183.118 111.398 182.299 110.866 182.843Z" fill="#1A424F"/>
<path d="M121.631 156.229C110.927 166.078 100.487 176.273 89.6084 185.923C89.1318 186.345 89.8182 187.001 90.2959 186.612C101.543 177.348 112.257 167.453 122.383 156.976C122.837 156.507 122.113 155.785 121.631 156.229Z" fill="#1A424F"/>
<path d="M87.2095 206.913C85.1338 208.515 83.1937 210.285 81.4091 212.206C81.0839 212.598 81.5291 213.343 82.0069 212.983C84.1318 211.372 86.1496 209.623 88.0473 207.75C88.598 207.224 87.7714 206.43 87.2095 206.913Z" fill="#1A424F"/>
<path d="M102.671 155.122C91.9811 163.931 81.7691 173.304 72.0787 183.202C71.9994 183.282 71.955 183.39 71.9551 183.502C71.9552 183.614 71.9999 183.721 72.0793 183.801C72.1587 183.88 72.2663 183.925 72.3786 183.924C72.4908 183.924 72.5983 183.88 72.6776 183.8C83.0538 174.709 93.0128 164.972 103.269 155.72C103.678 155.351 103.086 154.789 102.671 155.122Z" fill="#1A424F"/>
<path d="M67.265 187.511C61.5588 192.597 54.8712 196.74 49.5923 202.285C49.1436 202.759 49.7997 203.359 50.2797 202.973C56.2237 198.172 62.3068 193.373 67.9828 188.259C68.4863 187.802 67.7719 187.063 67.265 187.511Z" fill="#1A424F"/>
<path d="M84.7857 189.631C77.7056 196.191 69.9683 202.176 63.1641 209.068C62.7155 209.517 63.3749 210.147 63.8527 209.757C71.3186 203.65 78.4391 196.953 85.5034 190.378C85.9868 189.932 85.2702 189.185 84.7857 189.631Z" fill="#1A424F"/>
<path d="M133.414 57.5738C133.372 57.6656 133.362 57.7689 133.385 57.8671C133.409 57.9654 133.465 58.0527 133.545 58.115C133.625 58.1773 133.723 58.2109 133.824 58.2104C133.925 58.2099 134.023 58.1752 134.102 58.1121C135.357 56.9116 136.535 55.6331 137.63 54.2844C138.559 53.3289 139.544 52.37 140.531 51.4739C141.129 58.5608 140.86 66.5751 145.077 72.6155C138.33 78.3027 135.453 79.5689 132.367 81.7065C133.157 79.7115 133.768 77.6498 134.191 75.546C134.281 75.0683 133.561 74.8585 133.443 75.3374C132.186 79.7112 130.566 83.9724 128.6 88.0767C126.732 92.3765 124.865 97.466 121.721 101.025C121.665 101.085 121.634 101.164 121.636 101.247C121.637 101.329 121.67 101.408 121.729 101.466C121.787 101.524 121.866 101.557 121.948 101.559C122.03 101.56 122.11 101.529 122.17 101.473C125.681 98.2297 127.56 92.8375 129.436 88.5544C131.985 82.7416 131.496 83.6377 131.769 83.5009C134.61 82.514 137.208 80.4156 139.634 78.656C141.989 76.9468 144.281 75.1075 146.482 73.1841C146.593 73.0782 146.665 72.938 146.687 72.786C146.709 72.6341 146.679 72.4792 146.602 72.3464C141.916 66.1197 142.565 57.8127 141.309 50.5162C141.286 50.4389 141.245 50.3682 141.19 50.3099C141.134 50.2516 141.065 50.2075 140.989 50.1811C140.913 50.1548 140.832 50.147 140.752 50.1585C140.673 50.1699 140.597 50.2003 140.531 50.247C139.149 51.2828 137.831 52.4015 136.584 53.5969C135.319 54.7424 134.249 56.0855 133.414 57.5738Z" fill="#1A424F"/>
<path d="M156.675 73.5131C166.354 58.8213 174.889 43.6563 180.114 26.773C180.271 26.2672 179.498 26.0586 179.337 26.5633C174.033 43.3041 165.223 58.2325 156.132 73.1845C155.872 73.5434 156.442 73.8731 156.675 73.5131Z" fill="#1A424F"/>
<path d="M178.657 46.0313C173.514 57.6805 166.93 68.3494 160.685 79.3738C160.635 79.4687 160.623 79.5791 160.653 79.6821C160.682 79.7851 160.75 79.8728 160.843 79.9268C160.935 79.9809 161.045 79.9972 161.149 79.9723C161.254 79.9474 161.344 79.8833 161.402 79.7933C168.379 69.2455 174.421 58.1084 179.459 46.5091C179.702 45.9696 178.897 45.4919 178.657 46.0313Z" fill="#1A424F"/>
<path d="M109.19 122.316C112.33 122.02 114.436 118.781 115.559 116.036C116.001 114.956 116.128 113.793 116.487 112.657C117.95 108.01 119.944 107.003 121.809 103.775C121.858 103.69 121.878 103.592 121.867 103.496C121.857 103.399 121.816 103.308 121.75 103.236C119.028 101.023 110.14 93.7651 108.383 92.3576C107.422 91.5837 105.122 89.1758 103.837 89.2173C103.119 89.2409 99.6798 93.912 99.9198 94.1217C103.874 97.9707 112.321 105.66 117.264 108.625C116.159 110.328 115.331 112.195 114.812 114.157C114.06 117.057 111.941 120.867 108.652 121.005C102.633 121.259 92.9777 115.933 86.2531 112.931C86.1345 112.869 85.9968 112.856 85.8689 112.894C85.741 112.932 85.6327 113.018 85.567 113.134C85.5012 113.251 85.483 113.388 85.5162 113.517C85.5494 113.646 85.6314 113.758 85.745 113.828C89.2957 115.892 92.994 117.692 96.8099 119.211C100.552 120.751 105.034 122.709 109.19 122.316Z" fill="#04BEBD"/>
<path d="M143.94 87.0294C139.55 93.2672 133.855 98.2994 129.166 104.255C128.838 104.673 129.377 105.242 129.765 104.852C135.301 99.5622 140.317 93.7543 144.746 87.5082C145.085 87.0058 144.273 86.555 143.94 87.0294Z" fill="#1A424F"/>
<path d="M144.508 99.2907C145.015 98.7209 144.185 97.8596 143.671 98.4529C140.8 101.769 137.817 105.103 135.088 108.531C135.019 108.612 134.983 108.716 134.987 108.823C134.991 108.93 135.035 109.031 135.111 109.106C135.186 109.182 135.287 109.226 135.394 109.23C135.501 109.234 135.605 109.198 135.686 109.129C139.145 106.372 141.595 102.569 144.508 99.2907Z" fill="#1A424F"/>
<path d="M7.7852 137.209C19.9626 120.62 38.6492 90.6497 66.7868 62.3293C66.8781 62.238 66.9294 62.1141 66.9294 61.985C66.9294 61.8558 66.8781 61.732 66.7868 61.6407C66.6954 61.5493 66.5716 61.498 66.4425 61.498C66.3133 61.498 66.1895 61.5493 66.0982 61.6407C54.6022 73.2152 43.8455 85.5013 33.8917 98.4262C24.3589 110.72 14.8922 123.329 6.58855 136.494C6.08051 137.299 7.25473 137.933 7.7852 137.209Z" fill="#1A424F"/>
<path d="M55.2435 89.5412C47.6616 97.9153 40.9015 106.998 35.0563 116.665C34.6077 117.384 35.7124 118.011 36.1621 117.322C42.336 107.892 48.3765 98.6546 56.0196 90.3789C56.5523 89.8036 55.747 88.9983 55.2435 89.5412Z" fill="#1A424F"/>
<path d="M13.3454 115.858C22.9197 102.736 31.2716 88.8203 41.0961 75.8758C41.3675 75.518 40.7697 75.0694 40.4983 75.3969C30.1176 87.9085 21.7365 102.042 12.2687 115.199C11.7753 115.894 12.8676 116.519 13.3454 115.858Z" fill="#1A424F"/>
<path d="M133.623 39.153C134.076 39.4917 134.497 39.8721 134.879 40.289C134.557 40.5084 134.204 40.6795 133.833 40.7971C133.108 41.0797 133.628 42.3347 134.371 42.0835C135.213 41.7986 136.577 40.8924 135.866 39.8404C135.414 39.3234 134.902 38.8619 134.341 38.4655C133.801 37.9888 133.228 37.5772 132.636 37.1488C132.274 36.8864 131.859 37.4483 132.158 37.7769C132.636 38.2255 133.111 38.6786 133.623 39.153Z" fill="#1A424F"/>
<path d="M129.077 48.3627C131.141 48.9594 133.055 48.2136 133.563 46.0008C133.809 44.5227 133.289 45.7698 127.432 42.5914C127.354 42.547 127.264 42.5239 127.174 42.5244C127.083 42.5249 126.994 42.549 126.916 42.5943C126.838 42.6395 126.772 42.7044 126.727 42.7826C126.681 42.8608 126.656 42.9495 126.655 43.04C126.655 44.9544 126.894 47.7335 129.077 48.3627ZM132.696 45.7317C132.366 46.3597 132.135 47.0259 131.409 47.2872C130.693 47.4908 129.931 47.4697 129.227 47.2266C128.067 46.7601 127.791 45.1933 127.732 43.907C129.278 44.7776 130.954 45.3937 132.696 45.7317Z" fill="#1A424F"/>
<path d="M142.656 49.7694C148.086 43.9376 157.552 28.7557 167.441 16.815C168.037 16.095 167.004 15.0587 166.424 15.7978C157.918 26.636 150.655 38.3984 141.963 49.0808C141.577 49.5653 142.207 50.2495 142.656 49.7694Z" fill="#1A424F"/>
<path d="M185.088 8.56075C177.147 12.7036 174.892 18.7665 164.842 36.88C159.235 46.9815 152.444 55.9636 145.673 65.2598C145.41 65.6221 146.001 66.0965 146.301 65.7376C162.051 46.9478 165.387 37.7615 174.227 22.1972C177.357 16.6917 179.057 13.0849 185.471 9.27851C185.558 9.22305 185.62 9.13712 185.646 9.03783C185.672 8.93854 185.659 8.83317 185.611 8.74269C185.562 8.6522 185.482 8.58324 185.385 8.54953C185.288 8.51581 185.182 8.51982 185.088 8.56075Z" fill="#1A424F"/>
<path d="M168.012 12.7794C167.28 10.0537 167.469 7.16239 168.55 4.55539C168.698 4.13594 168.129 3.98454 167.893 4.28622C167.013 5.57606 166.48 7.07033 166.343 8.62571C166.207 10.1811 166.473 11.7454 167.115 13.1686C167.329 13.6766 168.161 13.3155 168.012 12.7794Z" fill="#1A424F"/>
<path d="M172.916 8.68049C175.012 6.77393 175.98 3.07294 180.033 0.666179C180.111 0.61582 180.167 0.537648 180.188 0.447708C180.21 0.357768 180.197 0.262881 180.151 0.182523C180.105 0.102165 180.03 0.0424304 179.941 0.0155797C179.853 -0.011271 179.757 -0.00320102 179.675 0.0381329C177.99 0.950101 176.531 2.22727 175.404 3.77613C174.194 5.16948 173.159 6.70625 172.324 8.35189C172.174 8.68274 172.682 8.8947 172.916 8.68049Z" fill="#1A424F"/>
<path d="M175.339 9.00915C174.957 9.64056 175.913 10.1789 176.326 9.57776C178.432 6.54772 180.997 3.86396 183.928 1.62288C184.229 1.38624 183.839 0.907356 183.539 1.11484C180.315 3.34328 177.375 5.6491 175.339 9.00915Z" fill="#1A424F"/>
<path d="M176.894 11.1623C176.62 11.5784 177.195 11.9474 177.551 11.6704C179.631 10.07 179.967 8.8105 184.668 5.98878C184.757 5.9364 184.823 5.85099 184.85 5.75098C184.877 5.65096 184.863 5.54435 184.812 5.45414C184.761 5.36393 184.677 5.29735 184.577 5.26876C184.478 5.24016 184.371 5.25185 184.28 5.30129C181.36 6.59527 178.818 8.61248 176.894 11.1623Z" fill="#1A424F"/>
<path d="M65.8903 120.283C63.949 123.797 62.2712 128.09 62.5112 132.156C62.5145 132.253 62.5517 132.346 62.6163 132.418C62.6809 132.49 62.7689 132.538 62.865 132.552C62.961 132.566 63.059 132.547 63.1419 132.496C63.2248 132.446 63.2874 132.368 63.3187 132.276C64.53 128.39 63.1864 128.651 66.6373 120.732C66.8571 120.228 66.155 119.803 65.8903 120.283Z" fill="#1A424F"/>
<path d="M65.6502 136.94C66.3163 131.793 66.5474 126.807 68.5515 121.957C68.7253 121.537 67.9908 121.214 67.8035 121.629C65.6267 126.386 64.6119 131.592 64.8427 136.819C64.8718 137.267 65.5885 137.419 65.6502 136.94Z" fill="#1A424F"/>
<path d="M69.4774 136.521C70.1951 132.06 69.926 127.73 71.6912 123.454C71.8998 122.944 71.0284 122.583 70.794 123.095C68.8348 127.281 68.0888 131.933 68.6407 136.521C68.6699 136.609 68.726 136.686 68.8011 136.74C68.8762 136.794 68.9664 136.823 69.059 136.823C69.1517 136.823 69.2419 136.794 69.317 136.74C69.3921 136.686 69.4482 136.609 69.4774 136.521Z" fill="#1A424F"/>
<path d="M158.085 117.592C152.041 114.938 144.717 114.992 138.257 115.379C131.26 115.799 123.63 116.534 117.145 119.357C116.666 119.564 116.996 120.344 117.504 120.193C127.318 117.291 144.214 115.24 154.465 117.861C156.827 118.465 159.436 119.411 161.075 121.33C162.42 122.911 162.058 125.097 161.672 126.982C160.374 133.349 157.324 139.445 154.286 145.134C150.796 151.888 146.585 158.245 141.725 164.093C137.599 164.452 134.638 161.731 131.559 159.458C133.262 156.706 134.475 153.665 136.343 150.965C137.78 149.136 139.023 147.161 140.051 145.074C140.264 144.567 139.575 144.148 139.304 144.626C136.518 149.514 131.828 153.806 130.421 159.429C130.382 159.499 130.363 159.579 130.369 159.658C130.374 159.738 130.403 159.815 130.452 159.878C130.705 160.247 130.985 160.597 131.289 160.924C128.957 165.111 127.14 169.589 124.95 173.843C124.897 173.949 124.873 174.066 124.88 174.183C124.886 174.3 124.923 174.414 124.986 174.513C125.049 174.613 125.136 174.694 125.24 174.749C125.344 174.805 125.46 174.833 125.578 174.83C125.553 174.953 125.574 175.081 125.637 175.189C126.646 177.168 129.524 177.312 131.259 176.325C131.382 176.364 131.513 176.364 131.635 176.327C131.758 176.289 131.867 176.216 131.947 176.115C134.93 172.628 137.659 168.931 140.111 165.052C140.679 165.086 141.249 165.076 141.815 165.021C141.908 165.065 142.012 165.08 142.113 165.064C142.214 165.048 142.309 165.002 142.383 164.932C147.616 160.058 151.45 153.391 154.853 147.168C158.238 140.981 161.664 134.284 163.078 127.342C163.442 125.548 163.845 123.355 163.047 121.63C162.17 119.735 159.997 118.432 158.085 117.592ZM130.632 175.516C129.949 175.749 129.215 175.79 128.509 175.636C127.408 175.399 126.819 174.627 126.176 174.411C128.419 170.343 130.004 165.917 132.037 161.761C134.014 163.459 136.41 164.595 138.975 165.05C137.026 167.492 131.036 174.709 130.632 175.516Z" fill="#1A424F"/>
<path d="M142.207 142.113C142.322 142.041 142.411 141.933 142.461 141.805C142.51 141.678 142.516 141.538 142.479 141.407C142.442 141.276 142.364 141.16 142.255 141.077C142.147 140.994 142.015 140.948 141.878 140.947C136.776 141.437 133.13 143.655 120.407 145.702C115.713 146.457 110.517 147.272 105.784 146.33C105.157 146.204 104.886 147.168 105.514 147.317C112.376 148.947 122.828 146.965 130.036 145.403C133.984 144.547 138.541 143.908 142.207 142.113Z" fill="#1A424F"/>
<path d="M106.44 131.436C106.072 131.403 106.081 131.64 104.466 133.887C88.8775 155.583 68.3135 170.888 46.8108 190.556C45.8275 191.587 44.6481 192.41 43.3419 192.979C42.6815 193.256 41.9521 193.324 41.2519 193.174C40.5516 193.024 39.9139 192.664 39.4245 192.141C48.4848 174.678 57.9231 157.425 67.7393 140.38C66.9621 140.17 66.3295 140.975 65.9146 141.665C56.1002 158.022 47.2863 174.95 38.3176 191.784C37.9609 192.457 37.9519 192.841 38.737 193.28C42.1924 195.216 43.5987 194.626 45.6747 192.891C52.1099 187.515 58.4894 182.073 64.8132 176.563C76.7685 166.15 88.5893 155.456 98.6649 143.16C98.7569 143.048 107.046 132.812 106.888 131.887C106.878 131.771 106.828 131.662 106.746 131.58C106.664 131.497 106.556 131.446 106.44 131.436Z" fill="#1A424F"/>
<path d="M129.646 182.005C128.973 186.543 128.573 189.744 126.506 193.878C125.945 194.991 125.767 195.204 125.369 194.985C124.248 194.364 124.206 191.366 124.173 190.289C124.092 187.628 125.44 184.906 124.352 182.335C123.998 181.496 123.278 180.78 122.977 179.913C122.024 177.159 123.781 177.089 124.801 175.516C125.108 175.043 124.441 174.557 124.054 174.919C123.032 175.871 121.699 176.296 121.422 177.819C121.16 179.255 121.923 180.454 122.588 181.677C124.743 185.631 121.467 188.667 123.695 194.985C124.656 197.704 126.239 197.138 127.343 194.865C129.368 190.923 130.501 186.584 130.663 182.156C130.663 181.587 129.729 181.437 129.646 182.005Z" fill="#1A424F"/>
<path d="M39.7835 201.025C38.6697 203.118 37.3897 205.118 35.9558 207.006C35.6844 207.332 34.0716 209.464 33.5333 209.458C32.2178 209.443 33.2877 206.317 33.4739 205.779C34.1086 203.948 35.709 202.373 35.8952 200.396C35.9158 199.692 35.8457 198.988 35.6866 198.302C35.3703 196.301 36.7341 195.792 38.0788 194.833C38.4982 194.535 38.256 193.752 37.7199 193.936C35.4399 194.721 34.3184 195.012 34.3711 197.734C34.4058 199.558 34.6739 200.696 33.7722 202.339C32.3292 204.402 31.5378 206.85 31.5 209.367C31.5953 211.879 33.263 211.309 34.6402 209.995C37.2472 207.584 39.3158 204.649 40.711 201.384C40.914 200.872 40.0706 200.539 39.7835 201.025Z" fill="#1A424F"/>
<path d="M102.169 87.5078C93.039 97.2309 84.4323 107.433 76.3858 118.07C76.2867 118.241 76.2271 118.431 76.2116 118.628C76.1961 118.825 76.2249 119.022 76.296 119.206C78.1196 122.137 76.3701 125.694 76.0269 128.805C75.9641 129.374 76.7783 129.405 76.9544 128.925C77.9637 126.153 79.6752 121.569 77.403 118.998C85.6573 108.471 93.9408 98.1241 102.643 87.9867C102.674 87.9557 102.699 87.9187 102.716 87.8779C102.733 87.8372 102.742 87.7935 102.743 87.7493C102.743 87.7051 102.734 87.6612 102.718 87.6203C102.701 87.5793 102.676 87.5421 102.645 87.5106C102.614 87.4792 102.577 87.4542 102.537 87.437C102.496 87.4199 102.452 87.4109 102.408 87.4107C102.364 87.4104 102.32 87.4188 102.279 87.4355C102.238 87.4522 102.201 87.4768 102.169 87.5078Z" fill="#1A424F"/>
<path d="M95.4946 39.5118C97.1311 40.5053 99.0243 40.994 100.937 40.9171C100.813 41.4393 100.823 41.9847 100.968 42.5018C101.793 45.9145 112.151 41.9937 111.584 44.2368C111.016 46.4798 112.992 49.6279 116.697 47.9445C120.094 46.4013 120.522 46.7613 121.034 46.6884C120.971 49.6424 121.739 51.6477 120.286 56.2582C120.251 56.4137 120.278 56.5764 120.361 56.7126C120.443 56.8489 120.574 56.9483 120.728 56.9905C120.881 57.0326 121.045 57.0143 121.186 56.9392C121.326 56.864 121.432 56.7379 121.482 56.5868C122.386 53.2842 122.549 49.8225 121.96 46.4495C122.639 46.2056 123.218 45.7429 123.605 45.134C124.019 44.4734 123.124 43.9631 122.618 44.3556C121.475 45.245 119.429 46.177 118.731 44.147C118.648 43.8392 118.632 43.5172 118.684 43.2025C118.735 42.8879 118.853 42.5878 119.029 42.3223C119.456 41.6091 120.136 41.5754 120.854 41.3354C120.936 41.3084 121.007 41.2562 121.057 41.1865C121.108 41.1167 121.135 41.0329 121.135 40.9468C121.135 40.8607 121.108 40.7769 121.057 40.7071C121.007 40.6374 120.936 40.5852 120.854 40.5582C120.638 40.5103 120.417 40.4903 120.196 40.4988C119.179 39.4815 118.13 38.2255 118.222 37.3585C118.397 35.7133 123.453 33.6474 127.074 30.3906C128.239 29.3431 129.227 28.5367 130.035 27.8784C125.824 24.5397 123.074 22.8406 113.348 27.2806C103.879 31.6041 92.2579 37.0692 95.4946 39.5118ZM109.669 31.7061C111.966 30.5902 114.322 29.6022 116.727 28.7464C118.717 27.8319 120.935 27.5298 123.097 27.8784C123.457 27.9603 123.397 28.5906 123.007 28.5367C118.47 27.9042 114.133 31.0119 109.969 32.4239C109.877 32.4481 109.78 32.4383 109.695 32.3964C109.61 32.3544 109.543 32.283 109.506 32.1955C109.47 32.108 109.466 32.0102 109.496 31.9203C109.526 31.8303 109.588 31.7542 109.669 31.7061Z" fill="#1A424F"/>
<path d="M139.276 46.6882C136.895 51.255 130.766 51.3189 126.657 49.8284C126.15 49.6445 125.848 50.4285 126.298 50.6954C127.562 51.4116 128.973 51.8312 130.424 51.9223C130.498 53.4242 130.648 54.9215 130.872 56.4083C130.86 57.5688 131.148 58.7127 131.71 59.728C131.765 59.8126 131.848 59.8751 131.944 59.9047C132.04 59.9343 132.144 59.929 132.237 59.8898C132.329 59.8506 132.405 59.7799 132.451 59.6902C132.497 59.6006 132.51 59.4976 132.487 59.3994C132.184 57.9868 131.955 56.5595 131.8 55.1231C131.712 54.0756 131.68 52.999 131.5 51.9829C135.12 51.9829 138.888 50.4576 140.412 47.3779C141.699 44.776 140.548 41.9263 139.306 39.5722C138.656 38.3386 138.05 36.9412 137.332 35.6245C137.117 35.9344 136.842 36.1989 136.525 36.4028C136.823 37.0006 137.086 37.5737 137.361 38.1075C138.69 40.6433 140.76 43.8452 139.276 46.6882Z" fill="#1A424F"/>
<path d="M109.161 57.1555C110.409 54.4011 112.81 49.25 109.909 46.8084C109.839 46.7405 109.753 46.6913 109.659 46.6652C109.565 46.6392 109.466 46.6371 109.37 46.6593C107.068 47.3452 104.873 48.3517 102.851 49.6492C102.796 49.6793 102.754 49.7294 102.734 49.7893C102.714 49.8492 102.718 49.9143 102.745 49.9715C102.771 50.0287 102.819 50.0735 102.877 50.097C102.936 50.1205 103.001 50.1208 103.06 50.0978C106.594 49.2567 109.69 46.5348 109.938 49.3206C109.956 51.0768 109.61 52.8176 108.922 54.4336C107.031 54.2239 107.047 53.8313 105.931 53.2078C105.872 53.176 105.805 53.1639 105.739 53.1734C105.673 53.183 105.612 53.2135 105.565 53.2606C105.518 53.3077 105.488 53.3687 105.478 53.4346C105.469 53.5005 105.481 53.5676 105.512 53.6261C105.855 54.136 106.334 54.5404 106.893 54.794C107.453 55.0475 108.072 55.1402 108.682 55.0616C108.473 55.6303 108.303 56.2011 108.144 56.7361C107.974 57.3035 108.89 57.7521 109.161 57.1555Z" fill="#1A424F"/>
<path d="M58.0553 78.7456C60.0835 79.9205 62.2421 80.8543 64.4872 81.5281C64.9358 81.6784 64.5825 81.0884 65.1444 83.0533C64.7249 84.096 64.5607 85.2238 64.6655 86.3427C63.0126 87.1534 61.4492 88.1353 60.0011 89.2721C58.6878 90.2321 58.5174 90.6751 58.8347 92.3821C59.3619 95.2195 61.6666 97.7485 63.978 99.3197C65.9743 100.677 68.7635 102.321 71.3048 102.162C73.9964 101.992 74.7434 97.8247 75.4017 95.5223C75.8644 95.6162 76.3349 95.6661 76.807 95.6714C76.9192 95.6677 77.0264 95.6242 77.1094 95.5486C77.1925 95.4731 77.246 95.3706 77.2605 95.2592C77.2749 95.1479 77.2493 95.0351 77.1882 94.9409C77.1271 94.8467 77.0345 94.7773 76.927 94.7451C72.3815 93.0404 64.7552 90.139 65.5627 84.2489C67.7766 89.2609 74.8309 92.5267 80.0369 93.7279C73.9168 101.291 61.7563 117.626 61.0834 127.373C61.0853 127.469 61.1217 127.56 61.186 127.631C61.2502 127.702 61.3379 127.747 61.4328 127.757C61.5277 127.768 61.6233 127.745 61.702 127.69C61.7806 127.636 61.837 127.555 61.8606 127.463C63.9466 118.836 68.4371 111.283 73.4929 104.107C78.9523 96.0419 85.2573 88.5824 92.3006 81.8556C92.8132 81.3823 92.0404 80.6084 91.5537 81.1086C88.9103 83.8182 86.5293 86.2519 84.0474 89.0927C82.917 86.8317 81.8392 84.9745 77.9464 81.4967C75.8952 83.7767 74.9385 85.5285 73.6107 86.7308C73.5337 86.8027 73.4335 86.8448 73.3282 86.8494C73.2229 86.854 73.1195 86.8208 73.0365 86.7558C72.9535 86.6909 72.8965 86.5984 72.8757 86.4951C72.855 86.3918 72.8718 86.2844 72.9232 86.1924C74.082 84.2208 75.445 82.3766 76.9898 80.6903C74.6449 78.7159 71.916 77.2495 68.9754 76.3837C75.2585 68.5114 83.1471 62.0684 92.1156 57.484C91.6973 59.9065 93.7721 61.5304 95.7941 62.6273C96.0644 62.7742 96.4222 62.4781 96.2125 62.2089C95.6147 61.342 94.5392 61.0717 93.8203 60.3248C93.4359 59.8935 93.1488 59.3845 92.9785 58.8324C92.8082 58.2803 92.7587 57.698 92.8334 57.1251C96.9729 55.0559 100.626 52.8466 101.835 53.7157C103.559 54.9561 101.026 60.3842 100.549 61.97C100.369 62.5678 101.301 62.9884 101.565 62.3884C102.843 59.4971 105.021 54.6589 102.403 51.9516C102.317 51.8698 102.211 51.8107 102.097 51.7794C101.982 51.7481 101.861 51.7456 101.745 51.7721C94.2406 54.3833 87.2273 58.2345 80.9969 63.1656C77.4883 65.8411 74.1889 68.7806 71.1276 71.9582C66.3433 71.8382 61.4389 74.6196 57.9701 77.6992C57.8856 77.7618 57.8185 77.8448 57.775 77.9405C57.7316 78.0362 57.7132 78.1414 57.7218 78.2461C57.7303 78.3509 57.7654 78.4517 57.8238 78.5391C57.8821 78.6265 57.9618 78.6976 58.0553 78.7456ZM70.0465 100.786C66.645 100.155 61.0374 96.6528 60.0886 92.3529C60.0258 91.7983 60.1212 91.2373 60.3637 90.7346C60.6062 90.232 60.986 89.8081 61.4591 89.5121C61.3469 89.6018 64.0038 95.3799 72.8234 99.2603C72.5993 99.7896 72.2034 100.228 71.6996 100.505C71.1958 100.782 70.6134 100.88 70.0465 100.786ZM64.8427 80.2114C63.041 79.6177 61.2908 78.8777 59.6097 77.9987C62.7197 75.4562 66.0988 74.3201 69.867 73.2132C67.953 75.3645 66.269 77.71 64.8427 80.2114Z" fill="#1A424F"/>
</svg>
